<?xml version="1.0" encoding="utf-8"?>
<!-- Generator: Adobe Illustrator 15.0.0, SVG Export Plug-In  -->
<!DOCTYPE svg PUBLIC "-//W3C//DTD SVG 1.1//EN" "http://www.w3.org/Graphics/SVG/1.1/DTD/svg11.dtd" [
	<!ENTITY ns_flows "http://ns.adobe.com/Flows/1.0/">
]>
<svg version="1.1"
	 xmlns="http://www.w3.org/2000/svg" xmlns:xlink="http://www.w3.org/1999/xlink" xmlns:a="http://ns.adobe.com/AdobeSVGViewerExtensions/3.0/"
	 x="0px" y="0px" width="567px" height="567px" viewBox="-12.106 -141.159 567 567"
	 overflow="visible" enable-background="new -12.106 -141.159 567 567" xml:space="preserve">
<defs>
</defs>
<path fill="#FFFFFF" d="M516.587,212.83c-1.979-2.12-4.91-3.616-5.932-6.328c-1.759-4.161-0.935-9.752-4.964-12.666
	c-3.715-0.751-8.058,0.132-10.897-2.79c-1.542-1.419-2.167-3.462-1.591-5.536c2.345-5.001,3.812-10.848,2.567-16.877
	c0.229-1.955-2.304-4.076,0-5.714c7.042,1.902,16.293,2.609,22.588-1.412c5.843-3.865,9.919-9.843,9.521-17.057
	c-1.538-10.019-8.41-17.987-16.429-25.159c-1.019-0.894-1.849-1.827-1.771-3.148c0.185-0.754,0.265-1.684,1.148-1.992
	c4.205-0.264,8.289-0.841,11.912-2.564c6.393-3.507,8.063-10.535,7.143-17.458c-0.268-0.443-0.23-1.329-0.976-1.191
	c-1.771,1.858-3.812,2.914-5.977,3.766c-8.073,1.098-15.687,3.186-21.573,9.518c-2.001,2.484-2.218,7.002-0.629,9.707
	c4.961,9.521,16.566,15.278,19.224,25.769c1.503,4.522-0.486,8.56-3.945,11.478c-5.273,3.283-12.754,2.701-18.061,0
	c-12.58-6.375-23.126-17.722-37.031-20.823c-8.065-0.97-14.889-4.869-21.044-10.497c-5.23-4.023-12.002-4.605-18.025-6.731
	c-5.543-5.845-12.13-9.21-19.05-11.871c-3.891-1.732-8.776-1.199-12.087-4.385c-2.187-3.276-5.535-6.199-8.678-8.324
	c-4.834-2.755-11.834-5.01-17.061-1.998c-0.422,0.353-0.842,0.688-1.26,1.042c-10.793-18.145-26.693-32.913-45.688-42.325V0
	l-72.028,15.092v23.44c-29.613,6.552-54.752,25.137-70.019,50.347c-3.634-0.133-7.279,0.552-10.25,2.271
	c-8.414,7.41-18.872,10.016-28.749,14.049c-5.495,2.701-8.946,8.863-14.442,11.515c-7.525-0.126-14.175,1.822-19.625,6.738
	c-4.51,5.274-9.868,9.295-16.251,10.496c-11.381,0.349-20.777,5.262-28.964,13.29c-8.021,5.14-15.86,11.91-26.356,9.699
	c-3.952-1.064-7.747-4.652-9.127-8.506c-2.482-8.243,2.575-15.021,8.731-20.24c5.843-5.229,14.129-10.539,12.312-19.398
	c-1.376-7.534-9.749-8.999-15.867-10.34c-6.333-0.112-11.205-3.659-16.247-6.711C9.94,93.6,9.497,95.72,9.726,98.068
	c0.485,5.848,5.266,11.873,10.896,13.686c3.661,2.088,8.684-0.886,12.09,1.781c1.012,0.969,0.614,1.983,0.401,3.18
	c-6.869,6.956-17.284,13.818-19.007,23.572c-1.376,7.838,1.412,15.184,7.53,20.236c6.644,5.133,17.364,6.289,25.162,2.789
	c0.927-0.359,2.166-0.301,2.79,0.754l0.79,10.719c0.402,5.001,4.392,8.726,3.768,13.866c-2.481,2.787-5.888,4.118-8.942,5.98
	l-7.929,0.796c-2.213,1.73-3.061,4.391-3.77,6.914c-0.262,5.713-6.729,9.164-10.896,11.916c-1.466,2.871-4.117,6.87-7.928,6.731
	c-2.652,3.048-2.833,7.132-3.761,10.896c3.625,0.357,7.039,1.814,10.889,0.975c4.739-1.021,5.32-6.154,7.925-9.294
	c3.106-3.245,7.272,0.354,10.726-0.812c4.384-2.169,8.644-4.823,12.273-8.89c8.324-4.215,17.8,2.513,25.773-2.008
	c3.544-4.11,9.396-3.399,12.092-8.501c1.465-3.938,4.388-7.263,4.967-11.512c-0.849-0.843-1.639-1.816-2.786-1.99
	c-0.938,1.818-2.087,3.493-3.152,5.187c-5.049,8.315-13.988,10.809-22.81,11.687c-11.699-0.266-22.283,2.086-29.946,11.695h-0.797
	c-0.528-0.173-0.837-0.442-0.975-1.021c4.036-7.131,11.293-12.229,19.049-13.294c12.182-1.181,25.829-1.5,32.511-13.468
	c4.292-6.414,3.016-15.138,4.917-22.585c0.086-0.881,0.67-1.637,1.596-1.597c0.488,0.219,1.233,0.354,1.423,1.02
	c-0.852,6.118-1.163,12.758,0.969,18.434c3.809,5.042,11.249,2.298,16.255,1.369c9.525-2.036,17.985,3.02,27.731,0.979
	c1.059-0.491,1.989-1.108,1.59-2.575c-0.395-2.129-1.68-3.854-1.197-6.335c0.314-0.703,1.02-1.188,1.816-1.188
	c1.463,0.791,1.195,2.65,1.777,3.977c3.847,11.251,20.414,10.635,21.389,23.79c-1.463,4.825-6.644,6.652-10.89,7.703
	c-7.894,1.821-9.624-7.782-14.093-11.869c-3.894-2.392-9.08-0.606-13.244,0c-1.06,0.401-1.414,1.475-1.197,2.572l4.739,7.708
	c1.732,3.682,6.373-0.661,8.331,3.007c1.816,3.99,5.67,8.777,10.497,8.909c7.263-1.512,13.729-4.698,20.416-7.534
	c2.574-3.317,7.483-0.923,10.725-2.793c1.042-0.405,1.696-1.244,2.286-2.173c20.003,26.29,51.623,43.305,87.137,43.305
	c36.629,0,69.101-18.098,88.969-45.813c0.145,0.568,0.279,1.141,0.376,1.716c0.892,4.09,5.239,1.511,7.933,2.79
	c3.644,5.361,9.924,5.057,15.119,7.131c3.669,1.238,7.264,3.335,11.47,2.799c3.979-1.203,6.419-5.404,6.719-9.348
	c1.286-1.913,4.479-0.226,5.944-2.182c1.765-2.732,4.077-5.131,5.187-8.102c-1.689-2.386-5.187-1.198-7.744-1.81
	c-0.628,0.268-1.694,0.217-2.186,0.217l-0.171-0.217c-5.717-0.36-5.816,6.194-8.74,9.33c-1.094,1.305-2.83,1.119-4.368,1.388
	c-4.661-1.692-11.921-2.354-12.271-8.906c1.807-3.849,5.928-7.265,9.305-9.918c3.842-0.751,7.336-2.836,9.909-6.339
	c1.995-1.812,1.198-5.853,4.74-5.973c1.595,2.52,0,5.754-1.196,8.144c6.652,0.765,13.114-0.345,19.28-1.41
	c9.419-2.267,18.286,2.88,27.322-0.577c4.561-2.271,4.875-7.41,5.36-11.871l-0.227-0.225l0.227-0.176
	c-0.05-2.389-0.663-4.516-0.979-6.778c-0.142-1.021-0.576-2.429,0.18-3.365c0.713-0.403,1.197-0.31,1.771,0.231
	c3.771,8.411,2.039,19.123,6.737,27.142c3.27,6.821,9.962,11.691,17.447,12.093c0.312,0.05,0.626-0.441,0.796,0
	c11.957-2.389,22.423,2.39,29.55,11.47v0.622c-0.444,0.447-0.841,1.029-1.592,0.799c-1.334-1.725-3.104-2.436-4.559-3.992
	c-6.621-6.367-16.188-6.771-25.386-5.707c-9.479,0.267-18.261-7.71-21.579-16.079c-0.804-0.843-0.743-2.661-2.211-2.564
	c-0.441,0.312-0.579,0.785-0.752,1.19c0.575,6.2,1.425,12.227,5.706,16.825c4.081,1.996,7.261,6.069,11.924,6.566
	c6.515-1.554,14.169-0.854,20.015,1.76c4.606,1.778,8.337,5.722,12.486,8.516c2.352,1.146,5.5,0.572,7.536-0.975
	c5.271-1.417,6.121,4.864,9.695,7.346c3.019,2.31,7.445,1.328,11.308,1.549l0.613-0.352c-0.528-3.637-1.282-7.175-2.786-10.315
	C521.738,221.208,519.159,216.166,516.587,212.83 M367.312,109.765c1.202-0.046,2.527-0.131,2.975,1.2
	c0.658,2.345-2.076,3.849-3.539,5.357c-4.885,3.675-9.317,8.721-11.912,13.691h-0.416
	C354.036,121.596,360.231,114.32,367.312,109.765 M253.013,31.544L311.1,19.806l0.044,24.336
	c-12.812-5.269-26.816-8.186-41.51-8.186c-5.657,0-11.219,0.438-16.646,1.278L253.013,31.544z M179.016,118.085
	c0.709-0.081,1.546-0.395,2.166,0c1.955,1.417,2.792,3.637,3.774,5.586c1.054,3.716,1.457,8.412,0.389,12.271l-0.57,0.394
	c-0.571-0.93-0.571-2.121-0.8-3.185c-0.794-4.69-2.879-8.905-5.533-12.888C178.349,119.466,178.442,118.674,179.016,118.085
	 M375.243,185.683l-7.932,10.725l-1.146,2.38c-1.104,2.325-0.403,5.63-0.623,8.121c-1.943-1.032-2.07-3.464-2.774-5.366
	c-1.826-7.664,5.747-11.916,8.315-18.032c-1.684-0.709-3.2-1.805-5.131-1.985c-4.047,4.87-6.426,10.401-9.531,15.676
	c-0.227,1.754-0.049,3.412,0.285,5.031c-18.597,28.39-50.676,47.187-87.069,47.187c-34.595,0-65.288-16.983-84.22-43.038
	c1.318-2.387,2.685-4.744,2.317-7.802c-0.083-4.13-3.982-6.689-5.354-10.319c-0.792-1.865-1.549-3.911-2.572-5.539
	c-2.124-0.844-4.873-1.825-6.946-0.179c2.564,5.451,5.887,10.579,8.541,16.037c0.629,4.513-1.856,8.282-4.962,11.51
	c-0.441,0.45-1.054,0.052-1.413-0.403c0.971-3.271,2.26-6.634,2.003-10.095c-3.107-6.025-7.222-11.6-10.286-17.669
	c0.087-1.073,0.436-2.262,1.553-2.754c3.105-1.502,7.128-0.923,9.521-3.579c2.929-5.048,4.96-10.457,5.533-16.437
	c0.366-0.301,0.669-0.793,1.201-0.619c0.573,0.35,0.573,0.928,0.792,1.418c1.154,6.688-0.752,12.619-3.757,17.809
	c-0.45,0.622-0.043,1.28,0.383,1.812c2.229,0.972,4.576-0.178,6.746-0.403c4.07-2.917,9.91-1.632,14.477-3.357
	c0,0.479,0.8,0.573,0.583,1.15c-2.305,2.518-3.319,5.673-3.948,8.949c-2.745,3.098-6.95,5.623-6.95,9.923
	c0.707,1.767,2.258,0,3.369,0c0.754,0,1.196,0.839,1.015,1.548c-1.061,1.988-3.185,3.538-3.185,5.977c1.06,2.605,0,6.698,3.58,7.716
	c8.199,1.453,14.095-5.109,22.379-4.746c6.288,1.597,11.69-1.278,15.853-5.978c1.156-0.633,2.124,0.307,3.191,0.618
	c4.471,4.736,9.654,7.578,15.682,8.507c1.862,0.257,4.209,0.444,5.934-0.182c0.396-0.437,0.135-1.195-0.217-1.593
	c-4.434-1.737-8.781-4.209-12.101-8.331c-1.863-5.126-4.345-10.09-8.106-14.476c-0.304-0.272-0.304-0.982,0.172-1.16
	c4.252,1.018,7.846,5.316,9.747,9.083c3.451,5.311,8.642,9.697,15.243,9.128c0.794-0.223,1.994-0.141,1.767-1.378
	c-10.094-3.14-11.733-14.082-19.624-20.023c-3.847-9.569-7.304-19.261-9.078-29.718c-0.262-9.523-5.623-17.005-11.526-24.175
	c-9.291-14.09-23.863-22.11-36.034-32.52l-3.992-2.167c-1.564-0.93-3.343-1.674-5.216-2.193
	c14.398-22.698,37.348-39.458,64.265-45.736v34.885c-1.806-0.828-2.628-0.811-3.853-0.811c-12.222,0-22.954,11.387-22.954,18.958
	c0,5.145,4.07,8.131,9.504,8.131c5.978,0,13.182-3.122,18.477-8.667c4.201-4.464,5.685-8.933,5.685-16.933l0.12-36.939
	c5.426-0.866,10.983-1.338,16.659-1.338c14.745,0,28.786,3.091,41.509,8.65l0.018,13.862c-1.808-0.821-2.634-0.812-3.858-0.812
	c-12.218,0-22.948,11.376-22.948,18.962c0,5.153,4.072,8.134,9.499,8.134c5.991,0,13.185-3.117,18.478-8.667
	c4.205-4.477,5.696-8.941,5.696-16.939V53.277c17.235,9.109,31.638,22.904,41.468,39.688c-13.367,10.278-27.709,18.192-40.332,30.09
	c-8.455,7.891-12.971,17.448-15.678,27.774c-6.318,18.075-7.79,39.856-26.931,50.935c-0.124,0.583,0.131,1.013,0.575,1.376
	c4.298,0.851,8.947-0.13,11.918-3.768c2.884-4.562,6.381-8.853,10.496-12.885h0.801c1.504,0.307,0.265,1.594,0.404,2.395
	c-5.766,5.491-5.862,13.679-13.521,18.033c-0.847,0.747-3.053,2.032-1.545,3.178c8.454,0.881,14.66-5.355,20.587-10.719l1.21-0.178
	c3.36,2.082,5.886,6.562,10.317,5.539c8.816-2.431,14.832,3.06,21.965,5.356c2.129,0.937,3.724-0.707,5.182-1.99
	c3.105-2.171,1.512-6.104,1.377-9.125l0.583-0.573c1.455-0.168,3.271,1.241,4.382-0.396c0.487-3.99-2.927-6.821-4.564-10.104
	c-0.887-6.509-8.376-10.282-9.518-16.657c0.353-0.271,0.614-0.747,1.002-0.795c3.029,1.774,5.504,4.744,8.516,6.516
	c4.564,2.305,10.057,2.207,15.467,2.388c0.839-0.181,0.839-1.011,0.784-1.77c-2.825-6.337-5.214-12.892-4.735-20.64
	c0.483-2.354-0.527-5.896,2.354-6.74c0.702,0.184,0.796,0.978,1.183,1.421c0.367,6.913,0.506,13.995,3.598,19.805
	c1.679,4.163,6.121,6.564,9.478,9.117C375.606,182.057,376.003,184.13,375.243,185.683 M224.986,161.505
	c-1.01-0.49-2.25-0.443-3.142,0.398l-3.186,3.753c-1.061-0.477-0.537-2.206-0.394-3.136c1.146-2.882,2.745-5.625,3.759-8.543
	c0.538-0.895,1.811-0.631,2.569-0.41c3.093,1.996,3.679,5.66,6.728,7.936c2.394,3.225,3.905,8.055,1.819,11.919
	c-0.613,0.038-1.369,0.83-1.819,0C231.771,168.414,228.848,164.375,224.986,161.505 M218.266,193.615
	c1.676-1.503,3.399-3.459,5.924-2.361l0.404,1.561c0.268,1.507-0.354,2.657-0.971,3.765c-2.084,0.579-4.252,1.473-6.561,0.8
	C216.484,195.954,217.861,194.859,218.266,193.615 M326.874,164.467c-0.437-0.528-0.625-1.337-1.369-1.55
	c-2.881-0.709-5.012,1.686-7.131,3.368c-3.504,2.129-4.525,5.667-5.359,9.123c-0.229,0.616-0.891,0.269-1.371,0.4
	c-1.782-1.765,0-3.982,0-5.985c1.771-6.025,8.591-9.393,11.875-14.834c3.49-0.135,3.925,3.859,5.579,5.931
	c0.438,1.687,2.601,3.808,0.394,5.365C328.302,166.511,327.229,165.495,326.874,164.467 M327.094,197.378
	c-1.451,0.45-2.964,0-4.371-0.18c-1.656-0.886-1.733-2.791-2.183-4.385c0.354-0.521,0.084-1.506,0.797-1.771
	c1.994,0.134,3.902,0.881,5.143,2.387C327.009,194.631,328.073,196.053,327.094,197.378 M159.167,206.725
	c0.266-0.975-0.485-1.508-0.752-2.21c-0.97-1.959-1.42-4.083-2.611-5.938c-2.524-0.095-5.401,0.089-7.93,0.612l-0.186-0.22
	c-0.699,0.36-1.591,0.135-2.381,0.22c-0.405,0.27-0.577,0.665-0.577,1.157c3.449,2.034,4.296,5.85,6.158,8.943
	C153.9,210.84,156.784,208.453,159.167,206.725 M391.734,199.77c-1.13-0.056-2.355,0.085-3.209,0l-0.163,0.175
	c-1.416-0.443-3.188,0.086-4.562-0.355c-1.515,1.953-2.526,4.348-1.998,6.913c0.894,1.592,2.788,1.636,4.161,2.394
	c1.506,0.085,3.682,0.786,4.75-0.62c1.065-2.525,1.896-5.142,2.38-7.931C392.737,199.903,392.293,199.676,391.734,199.77
	 M12.109,216.602c2.177,0.938,3.903-0.53,5.366-1.951c1.241-2.034,3.191-3.768,3.54-6.154c-0.621-1.501-2.484-2.921-3.947-1.993
	c-2.076,3.366-8.808,3.313-6.948,8.543C10.783,215.586,11.274,216.517,12.109,216.602 M523.944,206.323l-1.411-0.229
	c-0.935,0.854-3.064,1.419-2.579,3.194c2.047,2.748,3.467,7.265,7.365,7.719c1.262-0.588,2.873-0.896,3.526-2.358
	c0.194-1.021,0.675-1.904,0-2.795L523.944,206.323z M4.589,217.799c-2.802,1.679-2.707,4.91-2.576,7.931
	c-0.043,1.901-2.26,2.925-1.991,4.953c2.081,0.718,4.032,1.861,6.323,1.996c1.294-3.85,2.139-7.925,3.198-11.913l-3.586-3.533
	C5.421,217.232,5.03,217.619,4.589,217.799 M538.61,220.583c-0.72-1.142-1.552-2.336-2.791-2.964c-1.99-1.019-3.229,1.416-4.34,2.57
	c-0.312,3.017,1.183,5.803,1.771,8.716c0.388,1.377-0.09,3.335,1.194,4.162l5.923-1.77l0.228-1.584
	C538.208,227.359,539.545,223.518,538.61,220.583"/>
</svg>
